<mxfile host="Electron" agent="Mozilla/5.0 (Windows NT 10.0; Win64; x64) AppleWebKit/537.36 (KHTML, like Gecko) draw.io/24.7.17 Chrome/128.0.6613.36 Electron/32.0.1 Safari/537.36" version="24.7.17">
  <diagram name="Page-1" id="nk33O3myFzExoFOTdXr2">
    <mxGraphModel dx="875" dy="524" grid="1" gridSize="10" guides="1" tooltips="1" connect="1" arrows="1" fold="1" page="1" pageScale="1" pageWidth="850" pageHeight="1100" math="0" shadow="0">
      <root>
        <mxCell id="0" />
        <mxCell id="1" parent="0" />
        <mxCell id="H_XrXMkxwJX65Zi78Sdi-2" value="" style="edgeStyle=orthogonalEdgeStyle;rounded=0;orthogonalLoop=1;jettySize=auto;html=1;" edge="1" parent="1" source="UBjv-P3hsI7ne-E2DAJY-2" target="H_XrXMkxwJX65Zi78Sdi-1">
          <mxGeometry relative="1" as="geometry" />
        </mxCell>
        <mxCell id="UBjv-P3hsI7ne-E2DAJY-2" value="START" style="rounded=1;whiteSpace=wrap;html=1;arcSize=50;" parent="1" vertex="1">
          <mxGeometry x="360" y="10" width="80" height="30" as="geometry" />
        </mxCell>
        <mxCell id="UBjv-P3hsI7ne-E2DAJY-3" value="END" style="rounded=1;whiteSpace=wrap;html=1;arcSize=50;" parent="1" vertex="1">
          <mxGeometry x="360" y="750" width="80" height="30" as="geometry" />
        </mxCell>
        <mxCell id="H_XrXMkxwJX65Zi78Sdi-4" value="" style="edgeStyle=orthogonalEdgeStyle;rounded=0;orthogonalLoop=1;jettySize=auto;html=1;" edge="1" parent="1" source="H_XrXMkxwJX65Zi78Sdi-1" target="H_XrXMkxwJX65Zi78Sdi-3">
          <mxGeometry relative="1" as="geometry" />
        </mxCell>
        <mxCell id="H_XrXMkxwJX65Zi78Sdi-1" value="&quot;Enter value n &quot;&lt;div&gt;#ใส่ค่า n&lt;/div&gt;" style="shape=parallelogram;perimeter=parallelogramPerimeter;whiteSpace=wrap;html=1;fixedSize=1;" vertex="1" parent="1">
          <mxGeometry x="340" y="110" width="120" height="60" as="geometry" />
        </mxCell>
        <mxCell id="H_XrXMkxwJX65Zi78Sdi-6" value="" style="edgeStyle=orthogonalEdgeStyle;rounded=0;orthogonalLoop=1;jettySize=auto;html=1;" edge="1" parent="1" source="H_XrXMkxwJX65Zi78Sdi-3" target="H_XrXMkxwJX65Zi78Sdi-5">
          <mxGeometry relative="1" as="geometry" />
        </mxCell>
        <mxCell id="H_XrXMkxwJX65Zi78Sdi-3" value="i = 1" style="whiteSpace=wrap;html=1;" vertex="1" parent="1">
          <mxGeometry x="380" y="200" width="40" height="20" as="geometry" />
        </mxCell>
        <mxCell id="H_XrXMkxwJX65Zi78Sdi-15" value="" style="edgeStyle=orthogonalEdgeStyle;rounded=0;orthogonalLoop=1;jettySize=auto;html=1;" edge="1" parent="1" source="H_XrXMkxwJX65Zi78Sdi-5" target="H_XrXMkxwJX65Zi78Sdi-14">
          <mxGeometry relative="1" as="geometry" />
        </mxCell>
        <mxCell id="H_XrXMkxwJX65Zi78Sdi-5" value="&quot;Enter number #i :&quot;&lt;div&gt;#ใส่ค่า ค่าหนึ่ง&lt;/div&gt;" style="shape=parallelogram;perimeter=parallelogramPerimeter;whiteSpace=wrap;html=1;fixedSize=1;" vertex="1" parent="1">
          <mxGeometry x="335" y="250" width="130" height="60" as="geometry" />
        </mxCell>
        <mxCell id="H_XrXMkxwJX65Zi78Sdi-10" style="edgeStyle=orthogonalEdgeStyle;rounded=0;orthogonalLoop=1;jettySize=auto;html=1;" edge="1" parent="1" source="H_XrXMkxwJX65Zi78Sdi-7" target="H_XrXMkxwJX65Zi78Sdi-11">
          <mxGeometry relative="1" as="geometry">
            <mxPoint x="510" y="400" as="targetPoint" />
          </mxGeometry>
        </mxCell>
        <mxCell id="H_XrXMkxwJX65Zi78Sdi-13" value="จริง" style="edgeLabel;html=1;align=center;verticalAlign=middle;resizable=0;points=[];" vertex="1" connectable="0" parent="H_XrXMkxwJX65Zi78Sdi-10">
          <mxGeometry x="-0.0324" y="1" relative="1" as="geometry">
            <mxPoint as="offset" />
          </mxGeometry>
        </mxCell>
        <mxCell id="H_XrXMkxwJX65Zi78Sdi-18" value="" style="edgeStyle=orthogonalEdgeStyle;rounded=0;orthogonalLoop=1;jettySize=auto;html=1;" edge="1" parent="1" source="H_XrXMkxwJX65Zi78Sdi-7" target="H_XrXMkxwJX65Zi78Sdi-17">
          <mxGeometry relative="1" as="geometry" />
        </mxCell>
        <mxCell id="H_XrXMkxwJX65Zi78Sdi-7" value="i &amp;lt;= ค่า n" style="rhombus;whiteSpace=wrap;html=1;" vertex="1" parent="1">
          <mxGeometry x="360" y="440" width="80" height="80" as="geometry" />
        </mxCell>
        <mxCell id="H_XrXMkxwJX65Zi78Sdi-12" style="edgeStyle=orthogonalEdgeStyle;rounded=0;orthogonalLoop=1;jettySize=auto;html=1;entryX=1;entryY=0.5;entryDx=0;entryDy=0;" edge="1" parent="1" source="H_XrXMkxwJX65Zi78Sdi-11" target="H_XrXMkxwJX65Zi78Sdi-5">
          <mxGeometry relative="1" as="geometry">
            <Array as="points">
              <mxPoint x="520" y="280" />
            </Array>
          </mxGeometry>
        </mxCell>
        <mxCell id="H_XrXMkxwJX65Zi78Sdi-11" value="i ++" style="rounded=0;whiteSpace=wrap;html=1;" vertex="1" parent="1">
          <mxGeometry x="500" y="470" width="40" height="20" as="geometry" />
        </mxCell>
        <mxCell id="H_XrXMkxwJX65Zi78Sdi-16" value="" style="edgeStyle=orthogonalEdgeStyle;rounded=0;orthogonalLoop=1;jettySize=auto;html=1;" edge="1" parent="1" source="H_XrXMkxwJX65Zi78Sdi-14" target="H_XrXMkxwJX65Zi78Sdi-7">
          <mxGeometry relative="1" as="geometry" />
        </mxCell>
        <mxCell id="H_XrXMkxwJX65Zi78Sdi-14" value="ค่าค่าหนึ่ง + c&amp;nbsp;&lt;div&gt;แล้ว&lt;span style=&quot;background-color: initial;&quot;&gt;เก็บผลลัพธ์ไว้ใน c&lt;/span&gt;&lt;/div&gt;" style="whiteSpace=wrap;html=1;" vertex="1" parent="1">
          <mxGeometry x="340" y="360" width="120" height="40" as="geometry" />
        </mxCell>
        <mxCell id="H_XrXMkxwJX65Zi78Sdi-22" value="" style="edgeStyle=orthogonalEdgeStyle;rounded=0;orthogonalLoop=1;jettySize=auto;html=1;" edge="1" parent="1" source="H_XrXMkxwJX65Zi78Sdi-17" target="H_XrXMkxwJX65Zi78Sdi-21">
          <mxGeometry relative="1" as="geometry" />
        </mxCell>
        <mxCell id="H_XrXMkxwJX65Zi78Sdi-17" value="&quot;Sum = ค่า c&quot;" style="shape=parallelogram;perimeter=parallelogramPerimeter;whiteSpace=wrap;html=1;fixedSize=1;" vertex="1" parent="1">
          <mxGeometry x="347.5" y="560" width="105" height="20" as="geometry" />
        </mxCell>
        <mxCell id="H_XrXMkxwJX65Zi78Sdi-23" value="" style="edgeStyle=orthogonalEdgeStyle;rounded=0;orthogonalLoop=1;jettySize=auto;html=1;" edge="1" parent="1" source="H_XrXMkxwJX65Zi78Sdi-21" target="UBjv-P3hsI7ne-E2DAJY-3">
          <mxGeometry relative="1" as="geometry" />
        </mxCell>
        <mxCell id="H_XrXMkxwJX65Zi78Sdi-21" value="&quot;Avg = ค่า c / ค่า n #ผลลัพธ์เป็นทศนิยมสองตำแหน่ง&quot;" style="shape=parallelogram;perimeter=parallelogramPerimeter;whiteSpace=wrap;html=1;fixedSize=1;" vertex="1" parent="1">
          <mxGeometry x="240" y="640" width="320" height="60" as="geometry" />
        </mxCell>
      </root>
    </mxGraphModel>
  </diagram>
</mxfile>
